# xmcd
#
# Track frame offsets:
#       150
#       18318
#       44480
#       67238
#       77389
#       82201
#       86167
#       89202
#       103734
#       135005
#       139343
#       140815
#       149965
#       160390
#       163845
#       179866
#       181840
#       192493
#
# Disc length: 2665 seconds
#
# Revision: 2
# Processed by: cddbd v1.5.2PL0 Copyright (c) Steve Scherf et al.
# Submitted via: WhereIsIt 3.73
#
DISCID=1d0a6712
DTITLE=Vladimir Mensik - Silvestry Vladimira Mensika II.
DYEAR=1900
DGENRE=
TTITLE0=Uvod do silvestrovskeho sou
TTITLE1=Silvestrovska prani
TTITLE2=Madarsky rock'n'roll
TTITLE3=Epizoda s tanecnici Kajenkou
TTITLE4=Muller a Thurgau
TTITLE5=Krasa slovenstiny
TTITLE6=Kotata
TTITLE7=Oprava piana
TTITLE8=Posledni vecer v tomto roce
TTITLE9=Obezita
TTITLE10=Cvrcek a Prcek
TTITLE11=Jak maminka prodavala americky kamna
TTITLE12=Navsteva Vidne
TTITLE13=Duel
TTITLE14=Holka modrooka
TTITLE15=Z vety hole veta rozvita
TTITLE16=Prihoda s nataceni filmu Hvezda jede na Jih
TTITLE17=Prani do Noveho roku
EXTD=
EXTT0=
EXTT1=
EXTT2=
EXTT3=
EXTT4=
EXTT5=
EXTT6=
EXTT7=
EXTT8=
EXTT9=
EXTT10=
EXTT11=
EXTT12=
EXTT13=
EXTT14=
EXTT15=
EXTT16=
EXTT17=
PLAYORDER=
